<svg width="35" height="39" viewBox="0 0 35 39" fill="none" xmlns="http://www.w3.org/2000/svg">
<path d="M15 36.5C16.375 36.5 17.5 35.375 17.5 34H12.5C12.5 35.375 13.625 36.5 15 36.5ZM22.5 29V22.75C22.5 18.9125 20.4625 15.7 16.875 14.85V14C16.875 12.9625 16.0375 12.125 15 12.125C13.9625 12.125 13.125 12.9625 13.125 14V14.85C9.55 15.7 7.5 18.9 7.5 22.75V29L5 31.5V32.75H25V31.5L22.5 29ZM20 30.25H10V22.75C10 19.65 11.8875 17.125 15 17.125C18.1125 17.125 20 19.65 20 22.75V30.25Z" fill="#777483"/>
<circle cx="24" cy="11" r="11" fill="#EA5455"/>
<path d="M18.8239 13.8409H24.375V16H26.3864V13.8409H27.875V12.108H26.3864V4.36364H23.7614L18.8239 12.1648V13.8409ZM24.3977 12.108H20.983V12.017L24.3068 6.75H24.3977V12.108Z" fill="white"/>
</svg>
