<svg width="18" height="21" viewBox="0 0 18 21" fill="none" xmlns="http://www.w3.org/2000/svg">
<path d="M2 9.24723V4.54723L8 2.29723L14 4.54723V8.23723C14.71 8.33723 15.38 8.54723 16 8.83723V3.15723L8 0.157227L0 3.15723V9.24723C0 14.2972 3.41 19.0072 8 20.1572C8.03 20.1472 8.05 20.1372 8.08 20.1372C7.29 19.3572 6.68 18.3772 6.33 17.2972C3.76 15.6872 2 12.5772 2 9.24723Z" fill="black"/>
<path d="M13 10.1572C10.24 10.1572 8 12.3972 8 15.1572C8 17.9172 10.24 20.1572 13 20.1572C15.76 20.1572 18 17.9172 18 15.1572C18 12.3972 15.76 10.1572 13 10.1572ZM16 15.6572H13.5V18.1572H12.5V15.6572H10V14.6572H12.5V12.1572H13.5V14.6572H16V15.6572Z" fill="black"/>
</svg>
