<svg width="62" height="62" viewBox="0 0 62 62" fill="none" xmlns="http://www.w3.org/2000/svg">
<circle cx="31" cy="31" r="31" fill="#F2EDFD"/>
<path d="M40 26.28V24C40 22.9 39.1 22 38 22H24C22.89 22 22 22.9 22 24V38C22 39.1 22.89 40 24 40H38C39.1 40 40 39.1 40 38V35.72C40.59 35.37 41 34.74 41 34V28C41 27.26 40.59 26.63 40 26.28ZM39 28V34H32V28H39ZM24 38V24H38V26H32C30.9 26 30 26.9 30 28V34C30 35.1 30.9 36 32 36H38V38H24Z" fill="#5475EA"/>
<path d="M35 32.5C35.8284 32.5 36.5 31.8284 36.5 31C36.5 30.1716 35.8284 29.5 35 29.5C34.1716 29.5 33.5 30.1716 33.5 31C33.5 31.8284 34.1716 32.5 35 32.5Z" fill="#5475EA"/>
</svg>
