<svg width="20" height="15" viewBox="0 0 20 15" fill="none" xmlns="http://www.w3.org/2000/svg">
<path d="M7 9.04647C4.66 9.04647 0 10.2561 0 12.6651V14.4744H14V12.6651C14 10.2561 9.34 9.04647 7 9.04647ZM2.34 12.4066C3.18 11.8069 5.21 11.1142 7 11.1142C8.79 11.1142 10.82 11.8069 11.66 12.4066H2.34ZM7 7.23718C8.93 7.23718 10.5 5.61398 10.5 3.61859C10.5 1.6232 8.93 0 7 0C5.07 0 3.5 1.6232 3.5 3.61859C3.5 5.61398 5.07 7.23718 7 7.23718ZM7 2.06776C7.83 2.06776 8.5 2.76047 8.5 3.61859C8.5 4.47671 7.83 5.16941 7 5.16941C6.17 5.16941 5.5 4.47671 5.5 3.61859C5.5 2.76047 6.17 2.06776 7 2.06776ZM14.04 9.10851C15.2 9.97697 16 11.1349 16 12.6651V14.4744H20V12.6651C20 10.5766 16.5 9.38765 14.04 9.10851V9.10851ZM13 7.23718C14.93 7.23718 16.5 5.61398 16.5 3.61859C16.5 1.6232 14.93 0 13 0C12.46 0 11.96 0.134405 11.5 0.361859C12.13 1.28201 12.5 2.40895 12.5 3.61859C12.5 4.82823 12.13 5.95516 11.5 6.87532C11.96 7.10277 12.46 7.23718 13 7.23718Z" fill="#777483"/>
</svg>
