<svg width="24" height="24" viewBox="0 0 24 24" fill="none" xmlns="http://www.w3.org/2000/svg">
<path d="M21.0376 0.225098H8.38202C7.68756 0.225098 7.07802 0.580101 6.7251 1.11447H7.8917C8.04271 1.04695 8.20602 1.00379 8.38215 1.00379H21.0376C21.6917 1.00379 22.2233 1.52746 22.2233 2.17175V18.3533C22.2233 18.9466 21.7659 19.4189 21.1835 19.4926C21.1452 19.7877 21.0455 20.0624 20.8879 20.2992H21.0377C22.1285 20.2992 23.0153 19.4267 23.0153 18.3533V2.17098C23.0152 1.09837 22.1284 0.225098 21.0376 0.225098Z" fill="#777483"/>
<path d="M18.3275 2.00391H5.67234C4.97788 2.00391 4.36834 2.35943 4.01489 2.89367H5.18188C5.33289 2.82628 5.49581 2.78272 5.67234 2.78272H18.3273C18.9831 2.78272 19.5145 3.3064 19.5145 3.95095V20.1328C19.5145 20.7261 19.0564 21.1969 18.4747 21.2706C18.4365 21.5656 18.336 21.8402 18.1791 22.0787H18.3281C19.4197 22.0787 20.3074 21.2062 20.3074 20.1312V3.95095C20.3059 2.87718 19.419 2.00391 18.3275 2.00391Z" fill="#777483"/>
<path d="M15.6175 3.7832H2.96252C1.87169 3.7832 0.984863 4.6557 0.984863 5.72986V21.9118C0.984863 22.9852 1.87169 23.8585 2.96252 23.8585H15.6175C16.7093 23.8585 17.5969 22.986 17.5969 21.9118V5.72986C17.5969 4.65647 16.7091 3.7832 15.6175 3.7832ZM16.8048 21.9118C16.8048 22.5552 16.2726 23.0801 15.6175 23.0801H2.96252C2.30758 23.0801 1.77564 22.556 1.77564 21.9118V5.72986C1.77564 5.08596 2.30744 4.56151 2.96252 4.56151H15.6175C16.2726 4.56151 16.8048 5.08596 16.8048 5.72986V21.9118Z" fill="#777483"/>
<path d="M10.4996 14.1092C11.3864 13.523 11.9975 12.3634 11.9975 11.3202C11.9975 9.84734 10.7868 8.65283 9.29035 8.65283C7.79464 8.65283 6.58355 9.84747 6.58355 11.3202C6.58355 12.3634 7.19466 13.523 8.07913 14.1092C5.96119 14.6388 4.38867 16.4536 4.38867 17.7978C4.38867 19.3858 14.1943 19.3858 14.1943 17.7978C14.1929 16.4536 12.6216 14.6388 10.4996 14.1092ZM9.29048 18.9874L7.91556 17.6363L9.07169 14.8838H9.05939L8.61081 14.3754C8.82908 14.4523 9.05389 14.4994 9.2897 14.4994C9.52603 14.4994 9.74992 14.4531 9.96741 14.3779L9.51791 14.8831H9.50797L10.665 17.6356L9.29048 18.9874Z" fill="#777483"/>
</svg>
