<svg width="18" height="19" viewBox="0 0 18 19" fill="none" xmlns="http://www.w3.org/2000/svg">
<path d="M10 4.65723H15V6.65723H10V4.65723ZM10 11.6572H15V13.6572H10V11.6572ZM16 0.157227H2C0.9 0.157227 0 1.05723 0 2.15723V16.1572C0 17.2572 0.9 18.1572 2 18.1572H16C17.1 18.1572 18 17.2572 18 16.1572V2.15723C18 1.05723 17.1 0.157227 16 0.157227ZM16 16.1572H2V2.15723H16V16.1572ZM8 3.15723H3V8.15723H8V3.15723ZM7 7.15723H4V4.15723H7V7.15723ZM8 10.1572H3V15.1572H8V10.1572ZM7 14.1572H4V11.1572H7V14.1572Z" fill="black"/>
</svg>
