<svg width="20" height="21" viewBox="0 0 20 21" fill="none" xmlns="http://www.w3.org/2000/svg">
<path d="M10 20.1572C11.1 20.1572 12 19.2572 12 18.1572H8.00003C8.00003 19.2572 8.90003 20.1572 10 20.1572ZM16 14.1572V9.15723C16 6.08723 14.37 3.51723 11.5 2.83723V2.15723C11.5 1.32723 10.83 0.657227 10 0.657227C9.17003 0.657227 8.50003 1.32723 8.50003 2.15723V2.83723C5.64003 3.51723 4.00003 6.07723 4.00003 9.15723V14.1572L2.00003 16.1572V17.1572H18V16.1572L16 14.1572ZM14 15.1572H6.00003V9.15723C6.00003 6.67723 7.51003 4.65723 10 4.65723C12.49 4.65723 14 6.67723 14 9.15723V15.1572ZM5.58003 2.23723L4.15003 0.807227C1.75003 2.63723 0.170029 5.45723 0.0300293 8.65723H2.03003C2.18003 6.00723 3.54003 3.68723 5.58003 2.23723V2.23723ZM17.97 8.65723H19.97C19.82 5.45723 18.24 2.63723 15.85 0.807227L14.43 2.23723C16.45 3.68723 17.82 6.00723 17.97 8.65723Z" fill="black"/>
</svg>
