<svg width="62" height="62" viewBox="0 0 62 62" fill="none" xmlns="http://www.w3.org/2000/svg">
<circle cx="31" cy="31" r="31" fill="#FDEDED"/>
<path d="M36 40V38C36 36.9391 35.5786 35.9217 34.8284 35.1716C34.0783 34.4214 33.0609 34 32 34H24C22.9391 34 21.9217 34.4214 21.1716 35.1716C20.4214 35.9217 20 36.9391 20 38V40" stroke="#EA5454" stroke-width="2" stroke-linecap="round" stroke-linejoin="round"/>
<path d="M28 30C30.2091 30 32 28.2091 32 26C32 23.7909 30.2091 22 28 22C25.7909 22 24 23.7909 24 26C24 28.2091 25.7909 30 28 30Z" stroke="#EA5454" stroke-width="2" stroke-linecap="round" stroke-linejoin="round"/>
<path d="M42 39.9999V37.9999C41.9993 37.1136 41.7044 36.2527 41.1614 35.5522C40.6184 34.8517 39.8581 34.3515 39 34.1299" stroke="#EA5454" stroke-width="2" stroke-linecap="round" stroke-linejoin="round"/>
<path d="M35 22.1299C35.8604 22.3502 36.623 22.8506 37.1676 23.5522C37.7122 24.2538 38.0078 25.1167 38.0078 26.0049C38.0078 26.8931 37.7122 27.756 37.1676 28.4576C36.623 29.1592 35.8604 29.6596 35 29.8799" stroke="#EA5454" stroke-width="2" stroke-linecap="round" stroke-linejoin="round"/>
</svg>
