<svg width="24" height="25" viewBox="0 0 24 25" fill="none" xmlns="http://www.w3.org/2000/svg">
<g clip-path="url(#clip0_2046_874)">
<path d="M12 15.1572C13.6569 15.1572 15 13.8141 15 12.1572C15 10.5004 13.6569 9.15723 12 9.15723C10.3431 9.15723 9 10.5004 9 12.1572C9 13.8141 10.3431 15.1572 12 15.1572Z" stroke="black" stroke-width="2" stroke-linecap="round" stroke-linejoin="round"/>
<path d="M19.4 15.1572C19.2669 15.4588 19.2272 15.7934 19.286 16.1178C19.3448 16.4422 19.4995 16.7415 19.73 16.9772L19.79 17.0372C19.976 17.223 20.1235 17.4435 20.2241 17.6863C20.3248 17.9291 20.3766 18.1894 20.3766 18.4522C20.3766 18.7151 20.3248 18.9753 20.2241 19.2181C20.1235 19.4609 19.976 19.6815 19.79 19.8672C19.6043 20.0532 19.3837 20.2007 19.1409 20.3013C18.8981 20.402 18.6378 20.4538 18.375 20.4538C18.1122 20.4538 17.8519 20.402 17.6091 20.3013C17.3663 20.2007 17.1457 20.0532 16.96 19.8672L16.9 19.8072C16.6643 19.5767 16.365 19.422 16.0406 19.3632C15.7162 19.3044 15.3816 19.3441 15.08 19.4772C14.7842 19.604 14.532 19.8145 14.3543 20.0828C14.1766 20.3511 14.0813 20.6654 14.08 20.9872V21.1572C14.08 21.6877 13.8693 22.1964 13.4942 22.5714C13.1191 22.9465 12.6104 23.1572 12.08 23.1572C11.5496 23.1572 11.0409 22.9465 10.6658 22.5714C10.2907 22.1964 10.08 21.6877 10.08 21.1572V21.0672C10.0723 20.7362 9.96512 20.4152 9.77251 20.1459C9.5799 19.8766 9.31074 19.6715 9 19.5572C8.69838 19.4241 8.36381 19.3844 8.03941 19.4432C7.71502 19.502 7.41568 19.6567 7.18 19.8872L7.12 19.9472C6.93425 20.1332 6.71368 20.2807 6.47088 20.3813C6.22808 20.482 5.96783 20.5338 5.705 20.5338C5.44217 20.5338 5.18192 20.482 4.93912 20.3813C4.69632 20.2807 4.47575 20.1332 4.29 19.9472C4.10405 19.7615 3.95653 19.5409 3.85588 19.2981C3.75523 19.0553 3.70343 18.7951 3.70343 18.5322C3.70343 18.2694 3.75523 18.0091 3.85588 17.7663C3.95653 17.5235 4.10405 17.303 4.29 17.1172L4.35 17.0572C4.58054 16.8215 4.73519 16.5222 4.794 16.1978C4.85282 15.8734 4.81312 15.5388 4.68 15.2372C4.55324 14.9415 4.34276 14.6892 4.07447 14.5115C3.80618 14.3339 3.49179 14.2385 3.17 14.2372H3C2.46957 14.2372 1.96086 14.0265 1.58579 13.6514C1.21071 13.2764 1 12.7677 1 12.2372C1 11.7068 1.21071 11.1981 1.58579 10.823C1.96086 10.4479 2.46957 10.2372 3 10.2372H3.09C3.42099 10.2295 3.742 10.1223 4.0113 9.92974C4.28059 9.73713 4.48572 9.46796 4.6 9.15723C4.73312 8.85561 4.77282 8.52103 4.714 8.19664C4.65519 7.87224 4.50054 7.57291 4.27 7.33723L4.21 7.27723C4.02405 7.09148 3.87653 6.8709 3.77588 6.62811C3.67523 6.38531 3.62343 6.12506 3.62343 5.86223C3.62343 5.5994 3.67523 5.33914 3.77588 5.09635C3.87653 4.85355 4.02405 4.63297 4.21 4.44723C4.39575 4.26127 4.61632 4.11376 4.85912 4.01311C5.10192 3.91246 5.36217 3.86065 5.625 3.86065C5.88783 3.86065 6.14808 3.91246 6.39088 4.01311C6.63368 4.11376 6.85425 4.26127 7.04 4.44723L7.1 4.50723C7.33568 4.73776 7.63502 4.89241 7.95941 4.95123C8.28381 5.01005 8.61838 4.97034 8.92 4.83723H9C9.29577 4.71046 9.54802 4.49998 9.72569 4.23169C9.90337 3.9634 9.99872 3.64901 10 3.32723V3.15723C10 2.62679 10.2107 2.11809 10.5858 1.74301C10.9609 1.36794 11.4696 1.15723 12 1.15723C12.5304 1.15723 13.0391 1.36794 13.4142 1.74301C13.7893 2.11809 14 2.62679 14 3.15723V3.24723C14.0013 3.56901 14.0966 3.8834 14.2743 4.15169C14.452 4.41998 14.7042 4.63046 15 4.75723C15.3016 4.89034 15.6362 4.93005 15.9606 4.87123C16.285 4.81241 16.5843 4.65776 16.82 4.42723L16.88 4.36723C17.0657 4.18127 17.2863 4.03376 17.5291 3.93311C17.7719 3.83246 18.0322 3.78065 18.295 3.78065C18.5578 3.78065 18.8181 3.83246 19.0609 3.93311C19.3037 4.03376 19.5243 4.18127 19.71 4.36723C19.896 4.55297 20.0435 4.77355 20.1441 5.01635C20.2448 5.25914 20.2966 5.5194 20.2966 5.78223C20.2966 6.04506 20.2448 6.30531 20.1441 6.54811C20.0435 6.7909 19.896 7.01148 19.71 7.19723L19.65 7.25723C19.4195 7.49291 19.2648 7.79224 19.206 8.11664C19.1472 8.44103 19.1869 8.77561 19.32 9.07723V9.15723C19.4468 9.453 19.6572 9.70524 19.9255 9.88292C20.1938 10.0606 20.5082 10.1559 20.83 10.1572H21C21.5304 10.1572 22.0391 10.3679 22.4142 10.743C22.7893 11.1181 23 11.6268 23 12.1572C23 12.6877 22.7893 13.1964 22.4142 13.5714C22.0391 13.9465 21.5304 14.1572 21 14.1572H20.91C20.5882 14.1585 20.2738 14.2539 20.0055 14.4315C19.7372 14.6092 19.5268 14.8615 19.4 15.1572V15.1572Z" stroke="black" stroke-width="2" stroke-linecap="round" stroke-linejoin="round"/>
</g>
<defs>
<clipPath id="clip0_2046_874">
<rect width="24" height="24" fill="white" transform="translate(0 0.157227)"/>
</clipPath>
</defs>
</svg>
