<svg width="22" height="22" viewBox="0 0 22 22" fill="none" xmlns="http://www.w3.org/2000/svg">
<path d="M12.7013 5.44946C12.5181 5.64272 12.4155 5.90256 12.4155 6.17318C12.4155 6.4438 12.5181 6.70363 12.7013 6.89689L14.3013 8.55111C14.4882 8.74054 14.7396 8.84665 15.0013 8.84665C15.2631 8.84665 15.5144 8.74054 15.7013 8.55111L19.4713 4.65337C19.9742 5.80221 20.1264 7.0822 19.9078 8.32277C19.6892 9.56334 19.11 10.7056 18.2476 11.5972C17.3852 12.4889 16.2804 13.0876 15.0805 13.3136C13.8806 13.5397 12.6425 13.3823 11.5313 12.8624L4.62132 20.0065C4.2235 20.4178 3.68393 20.6489 3.12132 20.6489C2.55871 20.6489 2.01914 20.4178 1.62132 20.0065C1.2235 19.5952 1 19.0374 1 18.4557C1 17.874 1.2235 17.3162 1.62132 16.9049L8.53132 9.76075C8.02848 8.61191 7.87624 7.33192 8.09486 6.09135C8.31349 4.85078 8.89261 3.70856 9.75504 2.81691C10.6175 1.92525 11.7223 1.32651 12.9222 1.10048C14.1221 0.874443 15.3601 1.03185 16.4713 1.55172L12.7113 5.43912L12.7013 5.44946Z" stroke="#777483" stroke-width="2" stroke-linecap="round" stroke-linejoin="round"/>
</svg>
