<svg width="24" height="25" viewBox="0 0 24 25" fill="none" xmlns="http://www.w3.org/2000/svg">
<path d="M17 21.1572V19.1572C17 18.0964 16.5786 17.0789 15.8284 16.3288C15.0783 15.5787 14.0609 15.1572 13 15.1572H5C3.93913 15.1572 2.92172 15.5787 2.17157 16.3288C1.42143 17.0789 1 18.0964 1 19.1572V21.1572" stroke="black" stroke-width="2" stroke-linecap="round" stroke-linejoin="round"/>
<path d="M9 11.1572C11.2091 11.1572 13 9.36637 13 7.15723C13 4.94809 11.2091 3.15723 9 3.15723C6.79086 3.15723 5 4.94809 5 7.15723C5 9.36637 6.79086 11.1572 9 11.1572Z" stroke="black" stroke-width="2" stroke-linecap="round" stroke-linejoin="round"/>
<path d="M23 21.1571V19.1571C22.9993 18.2708 22.7044 17.4099 22.1614 16.7094C21.6184 16.009 20.8581 15.5087 20 15.2871" stroke="black" stroke-width="2" stroke-linecap="round" stroke-linejoin="round"/>
<path d="M16 3.28711C16.8604 3.50741 17.623 4.00781 18.1676 4.70942C18.7122 5.41103 19.0078 6.27394 19.0078 7.16211C19.0078 8.05028 18.7122 8.91319 18.1676 9.6148C17.623 10.3164 16.8604 10.8168 16 11.0371" stroke="black" stroke-width="2" stroke-linecap="round" stroke-linejoin="round"/>
</svg>
