<svg width="62" height="62" viewBox="0 0 62 62" fill="none" xmlns="http://www.w3.org/2000/svg">
<circle cx="31" cy="31" r="31" fill="#FCEAEA"/>
<path d="M37 32H36.32L34.32 34H36.23L38 36H24L25.78 34H27.83L25.83 32H25L22 35V39C22 40.1 22.89 41 23.99 41H38C39.1 41 40 40.11 40 39V35L37 32ZM38 39H24V38H38V39ZM30.34 34.02C30.73 34.41 31.36 34.41 31.75 34.02L38.11 27.66C38.5 27.27 38.5 26.64 38.11 26.25L33.16 21.3C32.78 20.9 32.15 20.9 31.76 21.29L25.39 27.66C25 28.05 25 28.68 25.39 29.07L30.34 34.02ZM32.46 23.41L36 26.95L31.05 31.9L27.51 28.36L32.46 23.41Z" fill="#EA5455"/>
</svg>
